<svg width="39" height="39" viewBox="0 0 39 39" fill="none" xmlns="http://www.w3.org/2000/svg">
<g clip-path="url(#clip0_451_5244)">
<path d="M19.4997 15.9546V23.5064H29.9942C29.5334 25.9351 28.1505 27.9915 26.0764 29.3742L32.405 34.2847C36.0923 30.8812 38.2196 25.882 38.2196 19.9434C38.2196 18.5607 38.0955 17.231 37.865 15.9548L19.4997 15.9546Z" fill="white"/>
<path d="M8.57137 23.2114L7.14403 24.304L2.09167 28.2394C5.3003 34.6035 11.8766 38.9999 19.4993 38.9999C24.7642 38.9999 29.1782 37.2626 32.4046 34.2845L26.076 29.374C24.3388 30.544 22.1228 31.2532 19.4993 31.2532C14.4293 31.2532 10.1217 27.8318 8.57934 23.2227L8.57137 23.2114Z" fill="white"/>
<path d="M2.09167 10.7605C0.762193 13.384 0 16.3445 0 19.4999C0 22.6553 0.762193 25.6158 2.09167 28.2394C2.09167 28.257 8.57996 23.2048 8.57996 23.2048C8.18996 22.0348 7.95944 20.794 7.95944 19.4997C7.95944 18.2055 8.18996 16.9646 8.57996 15.7946L2.09167 10.7605Z" fill="white"/>
<path d="M19.4997 7.76454C22.3716 7.76454 24.9242 8.75724 26.9629 10.6718L32.5469 5.08779C29.161 1.93239 24.7648 0 19.4997 0C11.877 0 5.3003 4.37863 2.09167 10.7605L8.57977 15.795C10.1219 11.1859 14.4297 7.76454 19.4997 7.76454Z" fill="white"/>
</g>
<defs>
<clipPath id="clip0_451_5244">
<rect width="39" height="39" fill="white"/>
</clipPath>
</defs>
</svg>
